# xmcd
#
# Track frame offsets:
#	150
#	13793
#	24971
#	36018
#	53869
#	86281
#	102933
#	115071
#	125264
#	140149
#	150277
#	163465
#	178266
#	188983
#	200498
#	213208
#	223634
#	235404
#	245857
#	258134
#	268560
#	280707
#	290573
#	299957
#	311541
#
# Disc length: 4312 seconds
#
# Revision: 0
# Processed by: cddbd v1.5.1PL0 Copyright (c) Steve Scherf et al.
# Submitted via: dBpowerAMP V4.0
#
DISCID=7a10d619
DTITLE=the Beatles - Beatles colection
DYEAR=1900
DGENRE=
TTITLE0=beatles 1
TTITLE1=beatles 2
TTITLE2=beatles 3
TTITLE3=beatles 4
TTITLE4=beatles 5
TTITLE5=beatles 6
TTITLE6=beatles 7
TTITLE7=beatles 9
TTITLE8=beatles 10
TTITLE9=beatles 11
TTITLE10=beatles 12
TTITLE11=beatles 13
TTITLE12=beatles 14
TTITLE13=beatles 15
TTITLE14=beatles 16
TTITLE15=beatles 17
TTITLE16=beatles 18
TTITLE17=beatles 19
TTITLE18=beatles 20
TTITLE19=beatles 8
TTITLE20=beatles 21
TTITLE21=beatles 22
TTITLE22=beatles 23
TTITLE23=beatles 24
TTITLE24=beatles 25
EXTD=
EXTT0=
EXTT1=
EXTT2=
EXTT3=
EXTT4=
EXTT5=
EXTT6=
EXTT7=
EXTT8=
EXTT9=
EXTT10=
EXTT11=
EXTT12=
EXTT13=
EXTT14=
EXTT15=
EXTT16=
EXTT17=
EXTT18=
EXTT19=
EXTT20=
EXTT21=
EXTT22=
EXTT23=
EXTT24=
PLAYORDER=
